<svg width="30" height="49" viewBox="0 0 400 590" fill="none" xmlns="http://www.w3.org/2000/svg">
<mask id="path-1-inside-1" fill="white">
<path fill-rule="evenodd" clip-rule="evenodd" d="M300 373.244C359.78 338.663 400 274.028 400 200C400 89.5431 310.457 0 200 0C89.5431 0 0 89.5431 0 200C0 274.028 40.2199 338.663 100 373.244V442C100 464.091 117.909 482 140 482H260C282.091 482 300 464.091 300 442V373.244Z"/>
</mask>
<path d="M300 373.244L292.99 361.125L286 365.168V373.244H300ZM100 373.244H114V365.168L107.01 361.125L100 373.244ZM386 200C386 268.829 348.622 328.944 292.99 361.125L307.01 385.362C370.938 348.382 414 279.228 414 200H386ZM200 14C302.725 14 386 97.275 386 200H414C414 81.8111 318.189 -14 200 -14V14ZM14 200C14 97.275 97.275 14 200 14V-14C81.8111 -14 -14 81.8111 -14 200H14ZM107.01 361.125C51.3781 328.944 14 268.829 14 200H-14C-14 279.228 29.0616 348.382 92.9898 385.362L107.01 361.125ZM114 442V373.244H86V442H114ZM140 468C125.641 468 114 456.359 114 442H86C86 471.823 110.177 496 140 496V468ZM260 468H140V496H260V468ZM286 442C286 456.359 274.359 468 260 468V496C289.823 496 314 471.823 314 442H286ZM286 373.244V442H314V373.244H286Z" fill="black" mask="url(#path-1-inside-1)"/>
<path d="M350 201C350 118.157 282.843 51 200 51" stroke="black" stroke-width="14" stroke-linecap="round"/>
<mask id="path-4-inside-2" fill="white">
<path fill-rule="evenodd" clip-rule="evenodd" d="M110 503C110 494.716 116.716 488 125 488H275C283.284 488 290 494.716 290 503C290 511.284 283.284 518 275 518H125C116.716 518 110 511.284 110 503ZM115 539C115 530.716 121.716 524 130 524H270C278.284 524 285 530.716 285 539C285 547.284 278.284 554 270 554H130C121.716 554 115 547.284 115 539ZM140 560C131.716 560 125 566.716 125 575C125 583.284 131.716 590 140 590H260C268.284 590 275 583.284 275 575C275 566.716 268.284 560 260 560H140Z"/>
</mask>
<path fill-rule="evenodd" clip-rule="evenodd" d="M110 503C110 494.716 116.716 488 125 488H275C283.284 488 290 494.716 290 503C290 511.284 283.284 518 275 518H125C116.716 518 110 511.284 110 503ZM115 539C115 530.716 121.716 524 130 524H270C278.284 524 285 530.716 285 539C285 547.284 278.284 554 270 554H130C121.716 554 115 547.284 115 539ZM140 560C131.716 560 125 566.716 125 575C125 583.284 131.716 590 140 590H260C268.284 590 275 583.284 275 575C275 566.716 268.284 560 260 560H140Z" fill="black"/>
<path d="M125 474C108.984 474 96 486.984 96 503H124C124 502.448 124.448 502 125 502V474ZM275 474H125V502H275V474ZM304 503C304 486.984 291.016 474 275 474V502C275.552 502 276 502.448 276 503H304ZM275 532C291.016 532 304 519.016 304 503H276C276 503.552 275.552 504 275 504V532ZM125 532H275V504H125V532ZM96 503C96 519.016 108.984 532 125 532V504C124.448 504 124 503.552 124 503H96ZM130 510C113.984 510 101 522.984 101 539H129C129 538.448 129.448 538 130 538V510ZM270 510H130V538H270V510ZM299 539C299 522.984 286.016 510 270 510V538C270.552 538 271 538.448 271 539H299ZM270 568C286.016 568 299 555.016 299 539H271C271 539.552 270.552 540 270 540V568ZM130 568H270V540H130V568ZM101 539C101 555.016 113.984 568 130 568V540C129.448 540 129 539.552 129 539H101ZM139 575C139 574.448 139.448 574 140 574V546C123.984 546 111 558.984 111 575H139ZM140 576C139.448 576 139 575.552 139 575H111C111 591.016 123.984 604 140 604V576ZM260 576H140V604H260V576ZM261 575C261 575.552 260.552 576 260 576V604C276.016 604 289 591.016 289 575H261ZM260 574C260.552 574 261 574.448 261 575H289C289 558.984 276.016 546 260 546V574ZM140 574H260V546H140V574Z" fill="black" mask="url(#path-4-inside-2)"/>
</svg>
